<?xml version="1.0" encoding="UTF-8"?>
<svg id="Ebene_1" data-name="Ebene 1" xmlns="http://www.w3.org/2000/svg" viewBox="0 0 222.16 102.79">
  <defs>
    <style>
      .cls-1 {
        fill: #b7cd00;
      }

      .cls-1, .cls-2, .cls-3, .cls-4, .cls-5, .cls-6, .cls-7 {
        stroke-width: 0px;
      }

      .cls-2 {
        fill: #f08100;
      }

      .cls-3 {
        fill: #159a34;
      }

      .cls-4 {
        fill: #f6ca00;
      }

      .cls-5 {
        fill: #cd1719;
      }

      .cls-6 {
        fill: #65b32e;
      }

      .cls-7 {
        fill: #1d1d1b;
      }
    </style>
  </defs>
  <path class="cls-7" d="M24.14,91.01c-.3-.12-.61-.21-.93-.25-.32-.05-.64-.07-.97-.07-.43,0-.82.06-1.17.18-.35.12-.65.28-.9.49-.25.21-.44.47-.58.76-.13.29-.2.62-.2.96,0,.29.04.55.12.78.08.23.2.45.38.65.17.2.4.39.68.57.28.18.63.36,1.03.55.36.16.65.32.89.46.24.14.43.29.57.44.14.15.24.31.29.47.06.16.08.34.08.54,0,.48-.18.86-.53,1.14-.36.28-.83.42-1.42.42-.3,0-.61-.04-.92-.11-.31-.07-.64-.2-1.01-.37l-.12,1.05c.32.13.66.23,1.01.29.35.06.72.09,1.1.09.45,0,.86-.06,1.23-.19.37-.13.69-.31.96-.54.27-.23.48-.51.62-.83.15-.32.22-.68.22-1.07,0-.29-.04-.57-.13-.81-.09-.25-.22-.47-.4-.68-.18-.21-.41-.41-.7-.59-.28-.19-.62-.37-1.01-.54-.36-.16-.66-.32-.9-.46-.23-.14-.42-.29-.55-.43-.13-.14-.23-.29-.29-.44-.06-.15-.08-.31-.08-.48,0-.42.17-.75.5-1,.33-.25.76-.38,1.27-.38.28,0,.55.03.83.09.28.06.57.16.87.3l.14-.99h0ZM31.73,96.82c0-.07.02-.15.02-.23,0-.09,0-.16,0-.22,0-1.09-.24-1.9-.73-2.43-.49-.53-1.16-.79-2.02-.79-.46,0-.88.08-1.25.24-.38.16-.7.39-.98.69-.27.3-.48.66-.63,1.07-.15.42-.22.88-.22,1.4,0,1.09.29,1.95.88,2.57.58.62,1.42.93,2.52.93.72,0,1.37-.13,1.96-.39l-.04-.98c-.29.16-.59.28-.88.36-.29.08-.62.12-.99.12-.71,0-1.28-.2-1.7-.62-.42-.41-.65-.99-.66-1.72h4.73ZM27.03,96c.05-.66.26-1.16.62-1.51.36-.35.8-.53,1.33-.53s.95.17,1.27.5c.32.33.47.85.47,1.54h-3.69ZM34.61,90.08h-1.07v9.83h1.07v-3.24c0-.46.05-.86.16-1.19.1-.33.24-.61.42-.82.18-.21.39-.37.63-.47.24-.1.5-.16.78-.16.34,0,.61.06.81.19.2.13.36.3.47.52.11.22.19.48.22.79.03.3.05.64.05,1v3.38h1.07v-3.8c0-.43-.04-.83-.12-1.2-.08-.36-.21-.68-.39-.94-.18-.26-.43-.46-.73-.61-.31-.15-.69-.22-1.14-.22-.5,0-.94.12-1.33.36-.38.24-.69.55-.92.94h-.03c0-.09.02-.2.02-.34,0-.14,0-.29.01-.45,0-.16,0-.34,0-.51v-3.06h0ZM42.42,98.69c.23.41.53.74.92.98.39.25.83.37,1.32.37.46,0,.87-.09,1.23-.27.36-.18.67-.43.92-.74.25-.32.44-.69.57-1.12.13-.43.19-.89.19-1.4,0-.48-.07-.92-.19-1.33-.13-.41-.32-.77-.56-1.07-.24-.3-.54-.54-.88-.71-.35-.17-.74-.26-1.18-.26-.49,0-.94.12-1.34.36-.4.24-.71.56-.94.97h-.03c.02-.19.03-.45.03-.77,0-.33,0-.65,0-.98v-2.64h-1.07v7.83c0,.36,0,.71-.01,1.06,0,.35-.03.66-.05.94h.99c.02-.13.03-.31.04-.54,0-.23.01-.45.01-.67h.03ZM43.68,98.97c-.25-.13-.47-.32-.65-.55-.18-.23-.32-.5-.42-.81-.1-.31-.15-.65-.15-1.01s.05-.72.16-1.03c.11-.32.26-.59.44-.82.19-.23.4-.41.65-.54.25-.13.51-.19.8-.19.31,0,.59.07.83.19.24.13.44.31.6.54.16.23.29.5.38.82.09.32.13.66.13,1.02s-.05.73-.14,1.05c-.09.32-.22.59-.39.81-.17.23-.37.4-.62.53-.24.13-.51.2-.81.2s-.57-.07-.82-.2h0ZM54.68,96.82c0-.07.02-.15.02-.23,0-.09,0-.16,0-.22,0-1.09-.24-1.9-.73-2.43-.49-.53-1.16-.79-2.02-.79-.46,0-.88.08-1.25.24-.38.16-.7.39-.98.69-.27.3-.48.66-.63,1.07-.15.42-.22.88-.22,1.4,0,1.09.29,1.95.88,2.57s1.42.93,2.52.93c.72,0,1.37-.13,1.96-.39l-.04-.98c-.29.16-.59.28-.88.36-.29.08-.62.12-.99.12-.71,0-1.28-.2-1.7-.62-.42-.41-.65-.99-.66-1.72h4.73ZM49.97,96c.05-.66.26-1.16.62-1.51.36-.35.8-.53,1.33-.53s.95.17,1.27.5c.32.33.47.85.47,1.54h-3.69ZM57.55,90.08h-1.07v9.83h1.07v-3.24c0-.46.05-.86.16-1.19.1-.33.24-.61.42-.82.18-.21.39-.37.63-.47.24-.1.5-.16.78-.16.34,0,.61.06.81.19.2.13.36.3.47.52.11.22.19.48.22.79.03.3.05.64.05,1v3.38h1.07v-3.8c0-.43-.04-.83-.12-1.2-.08-.36-.21-.68-.39-.94-.18-.26-.43-.46-.73-.61-.31-.15-.69-.22-1.14-.22-.5,0-.94.12-1.33.36-.38.24-.69.55-.92.94h-.03c0-.09.01-.2.02-.34,0-.14,0-.29.01-.45,0-.16,0-.34,0-.51v-3.06h0ZM65.49,90.71h-1.2v1.22h1.2v-1.22h0ZM65.43,93.29h-1.07v6.62h1.07v-6.62h0ZM68.73,94.43c0-.17,0-.37-.01-.59,0-.22-.02-.4-.04-.56h-1.03c.03.28.04.59.05.93,0,.34.01.69.01,1.05v4.64h1.07v-3.24c0-.46.05-.86.15-1.19.1-.33.24-.61.41-.82.17-.21.38-.37.62-.47.24-.1.51-.16.79-.16.33,0,.6.06.81.18.21.12.37.29.48.51.11.22.19.49.23.79.04.31.06.65.06,1.02v3.38h1.07v-3.8c0-.43-.04-.83-.12-1.2-.08-.36-.21-.68-.39-.94s-.43-.46-.73-.61c-.31-.15-.69-.22-1.15-.22-.5,0-.94.12-1.32.34-.38.23-.69.54-.93.94h-.03ZM81.25,90.08h-1.07v2.64c0,.33,0,.64,0,.93,0,.29.01.53.03.72h-.03c-.2-.38-.49-.68-.88-.9-.39-.22-.83-.32-1.32-.32-.44,0-.84.09-1.2.26-.36.17-.67.42-.92.73-.25.31-.44.68-.58,1.11-.13.43-.2.9-.2,1.41s.07.95.2,1.36c.13.42.32.77.57,1.07.25.3.55.53.91.7.36.17.76.25,1.22.25.52,0,.97-.12,1.35-.36.38-.24.69-.57.93-.99h.03c0,.21,0,.42,0,.62,0,.21.01.4.03.59h.99c-.03-.28-.04-.59-.05-.94,0-.35-.01-.7-.01-1.06v-7.83h0ZM78.99,94.21c.25.13.47.31.64.55.18.23.32.51.42.83.1.32.15.67.15,1.04s-.05.7-.16,1.01c-.1.31-.25.58-.43.81-.18.23-.4.4-.64.53-.25.13-.51.2-.8.2-.3,0-.57-.07-.81-.2-.24-.13-.44-.31-.61-.54-.17-.23-.3-.5-.39-.81-.09-.31-.14-.65-.14-1,0-.38.05-.73.14-1.05.1-.32.23-.6.4-.83.17-.23.37-.41.62-.54.24-.13.51-.19.79-.19s.57.07.82.19h0ZM88.86,96.82c0-.07.01-.15.02-.23,0-.09,0-.16,0-.22,0-1.09-.24-1.9-.73-2.43-.49-.53-1.16-.79-2.02-.79-.46,0-.88.08-1.25.24-.38.16-.7.39-.97.69-.27.3-.48.66-.63,1.07-.15.42-.22.88-.22,1.4,0,1.09.29,1.95.88,2.57.58.62,1.42.93,2.52.93.72,0,1.37-.13,1.96-.39l-.04-.98c-.29.16-.59.28-.88.36-.29.08-.62.12-.99.12-.71,0-1.28-.2-1.7-.62-.42-.41-.65-.99-.66-1.72h4.73ZM84.15,96c.05-.66.26-1.16.62-1.51.36-.35.8-.53,1.33-.53s.95.17,1.27.5c.32.33.47.85.47,1.54h-3.69ZM91.69,94.48c0-.17,0-.37-.01-.6,0-.23-.02-.42-.04-.6h-1.04c.03.28.04.59.05.93,0,.34.01.69.01,1.05v4.64h1.07v-3.2c0-.8.16-1.43.48-1.89.32-.46.77-.7,1.34-.7.23,0,.44.03.61.08v-.97c-.17-.05-.37-.08-.6-.08-.42,0-.8.13-1.12.38-.32.25-.56.57-.73.96h-.03ZM100.09,98.76c0,.17,0,.37.01.58,0,.22.02.4.04.56h1.03c-.03-.28-.04-.59-.05-.93,0-.34-.01-.69-.01-1.05v-4.64h-1.07v3.24c0,.46-.05.86-.15,1.19-.1.33-.24.61-.41.82-.17.21-.38.37-.62.47-.24.1-.51.16-.79.16-.33,0-.6-.06-.81-.17-.21-.12-.37-.29-.48-.51-.11-.22-.19-.48-.23-.79-.04-.3-.06-.65-.06-1.03v-3.38h-1.07v3.8c0,.43.04.83.12,1.2.08.36.21.68.39.94.18.26.43.46.73.61.31.15.69.22,1.15.22.5,0,.94-.11,1.32-.34.38-.23.69-.54.93-.94h.03ZM104.4,94.43c0-.17,0-.37-.01-.59,0-.22-.02-.4-.04-.56h-1.03c.03.28.04.59.05.93,0,.34.01.69.01,1.05v4.64h1.07v-3.24c0-.46.05-.86.15-1.19.1-.33.24-.61.41-.82.17-.21.38-.37.62-.47.24-.1.51-.16.79-.16.33,0,.6.06.81.18.21.12.37.29.48.51.11.22.19.49.23.79.04.31.06.65.06,1.02v3.38h1.07v-3.8c0-.43-.04-.83-.12-1.2-.08-.36-.21-.68-.39-.94s-.43-.46-.74-.61c-.31-.15-.69-.22-1.15-.22-.5,0-.94.12-1.32.34-.38.23-.69.54-.93.94h-.03ZM114.66,94.21c.25.13.46.31.64.54.17.23.31.5.41.81.1.31.15.64.15,1.01s-.05.7-.15,1c-.1.3-.24.57-.42.79-.18.22-.4.39-.64.51-.25.12-.52.18-.81.18s-.56-.06-.8-.17c-.24-.12-.44-.28-.61-.5-.17-.22-.3-.48-.39-.78-.09-.3-.14-.64-.14-1s.05-.71.14-1.03c.1-.31.23-.58.4-.81.17-.23.38-.41.62-.54.24-.13.5-.19.79-.19s.57.07.82.19h0ZM115.91,93.29v.51c0,.17,0,.36.03.57h-.03c-.2-.36-.48-.66-.84-.88-.36-.23-.8-.34-1.33-.34-.44,0-.85.08-1.21.25s-.68.41-.94.71c-.26.31-.46.67-.6,1.1-.14.42-.21.89-.21,1.4s.07.94.21,1.35c.14.4.33.75.59,1.03.25.29.55.51.91.67.36.16.75.24,1.18.24.55,0,1-.12,1.37-.37.36-.25.65-.55.85-.92h.03c-.02.13-.03.27-.03.42v.41c0,.36-.04.7-.12,1-.08.3-.21.56-.38.77-.18.21-.41.38-.68.49-.28.12-.61.17-1.01.17s-.77-.05-1.14-.14c-.37-.1-.75-.25-1.14-.45l-.1,1.05c.4.16.79.27,1.18.34.39.07.8.1,1.24.1.56,0,1.04-.08,1.44-.25.4-.16.73-.39.98-.68.25-.29.44-.62.56-1.01.12-.39.18-.81.18-1.26v-6.3h-.98Z"/>
  <path class="cls-7" d="M23.3,73.13c-.15-.04-.29-.07-.42-.08-.13-.01-.28-.02-.42-.02-.36,0-.67.06-.93.18-.26.12-.46.29-.62.51-.16.22-.28.48-.35.78-.07.3-.11.64-.11,1v.83h-1.52v.84h1.52v5.73h1.04v-5.73h1.72v-.84h-1.72v-.86c0-.52.08-.91.24-1.17.16-.26.45-.39.86-.39.2,0,.41.03.64.08l.08-.86h0ZM29.16,81.76c0,.17,0,.37.01.58,0,.22.02.4.04.56h1.03c-.03-.28-.04-.59-.05-.93,0-.34-.01-.69-.01-1.05v-4.64h-1.07v3.24c0,.46-.05.86-.15,1.19-.1.33-.24.61-.41.82-.17.21-.38.37-.62.47-.24.1-.51.16-.79.16-.33,0-.6-.06-.81-.18-.21-.12-.37-.29-.48-.51-.11-.22-.19-.48-.23-.79-.04-.3-.06-.65-.06-1.03v-3.38h-1.07v3.8c0,.43.04.83.12,1.2s.21.68.39.94c.18.26.43.46.73.61.31.15.69.22,1.15.22.5,0,.94-.11,1.32-.34.38-.23.69-.54.93-.94h.03ZM26.73,73.8h-1.07v1.11h1.07v-1.11h0ZM29.12,73.8h-1.07v1.11h1.07v-1.11h0ZM33.49,77.48c0-.17,0-.37-.01-.6,0-.23-.02-.42-.04-.6h-1.04c.03.28.04.59.05.93,0,.34.01.69.01,1.05v4.64h1.07v-3.2c0-.8.16-1.43.48-1.89.32-.46.77-.7,1.34-.7.23,0,.44.03.61.08v-.98c-.17-.05-.37-.08-.6-.08-.42,0-.8.13-1.12.38-.32.25-.56.57-.73.96h-.03ZM42.36,73.83h-1.86v9.07h1.09v-7.1c0-.2,0-.4,0-.6,0-.2-.01-.39-.02-.57h.03c.03.13.08.28.14.46.06.18.12.36.19.54.07.18.13.35.18.51.06.16.11.29.15.4l2.52,6.36h1.04l2.55-6.49c.03-.1.08-.23.14-.36.06-.14.11-.29.18-.45.06-.16.12-.33.18-.49.06-.17.12-.33.17-.47h.03c0,.17-.02.36-.02.57,0,.2,0,.41,0,.6v7.1h1.12v-9.07h-1.82l-2.3,6.04c-.04.1-.09.23-.15.39-.06.16-.11.32-.18.49-.06.17-.12.35-.18.53-.06.18-.11.34-.15.47h-.03c-.04-.14-.09-.3-.15-.47-.06-.18-.11-.36-.18-.53-.06-.18-.12-.34-.18-.5-.06-.16-.1-.29-.14-.39l-2.35-6.03h0ZM57.85,79.82c0-.07.01-.15.02-.23,0-.09,0-.16,0-.22,0-1.09-.24-1.9-.73-2.43-.49-.53-1.16-.79-2.02-.79-.46,0-.88.08-1.25.24-.38.16-.7.39-.98.69-.27.3-.48.66-.63,1.07-.15.42-.22.88-.22,1.4,0,1.09.29,1.95.88,2.57.59.62,1.42.93,2.52.93.72,0,1.37-.13,1.96-.39l-.04-.98c-.29.16-.59.28-.88.36-.29.08-.62.12-.99.12-.71,0-1.28-.21-1.7-.62-.42-.41-.65-.99-.66-1.72h4.73ZM53.15,79c.05-.66.26-1.16.62-1.51.36-.35.8-.53,1.33-.53s.95.17,1.27.5c.32.33.47.85.47,1.54h-3.69ZM60.67,77.43c0-.17,0-.37-.01-.58,0-.22-.02-.4-.04-.56h-1.03c.03.28.04.59.05.93,0,.34.01.69.01,1.05v4.64h1.07v-3.24c0-.46.05-.86.15-1.19.1-.33.24-.61.41-.82.17-.21.38-.37.62-.47.24-.1.51-.16.79-.16.33,0,.6.06.81.18.21.12.37.29.48.51.11.22.19.49.23.79.04.31.06.65.06,1.02v3.38h1.07v-3.8c0-.43-.04-.83-.12-1.2-.08-.36-.21-.68-.39-.94-.18-.26-.43-.46-.73-.61-.31-.15-.69-.22-1.15-.22-.5,0-.94.11-1.32.34-.38.23-.69.54-.93.94h-.03ZM66.94,82.72c.28.11.56.2.85.25.29.05.6.08.94.08.32,0,.62-.04.91-.12.29-.08.54-.21.75-.37.21-.16.38-.37.5-.62.12-.25.18-.53.18-.86,0-.44-.13-.81-.4-1.12-.26-.3-.7-.58-1.31-.82-.45-.18-.78-.36-.99-.52-.21-.16-.32-.39-.32-.68,0-.31.12-.55.36-.71.24-.16.52-.24.85-.24.24,0,.48.02.71.07.23.05.47.13.71.25l.09-.9c-.21-.09-.44-.15-.71-.2-.26-.05-.54-.07-.81-.07-.32,0-.62.04-.89.12-.27.08-.51.2-.71.36-.2.16-.36.36-.47.59-.11.23-.17.5-.17.79,0,.23.03.42.1.6.07.17.16.33.29.47.13.14.29.28.49.4.19.12.42.24.68.35.27.12.49.23.68.33.18.1.33.2.44.29.11.1.19.2.24.31.05.11.07.24.07.39,0,.34-.13.59-.4.77-.26.17-.58.26-.94.26-.57,0-1.12-.14-1.64-.43l-.09.96h0ZM77.1,76.43c-.23-.09-.46-.15-.7-.18-.24-.03-.49-.05-.75-.05-.51,0-.97.08-1.38.25-.41.17-.76.41-1.06.71-.29.3-.52.66-.68,1.08-.16.42-.24.87-.24,1.36s.08.97.24,1.38c.16.41.39.77.68,1.07.29.3.64.53,1.06.69.42.16.88.24,1.4.24.58,0,1.09-.1,1.53-.29l-.08-.96c-.25.12-.48.21-.7.26-.21.05-.44.08-.7.08-.36,0-.68-.06-.96-.19-.29-.13-.53-.3-.73-.52-.2-.22-.35-.49-.46-.79-.11-.31-.16-.64-.16-1.01s.05-.7.16-.99c.11-.3.26-.55.47-.77.2-.21.45-.38.73-.5.28-.12.6-.18.94-.18.48,0,.91.09,1.31.26l.08-.95h0ZM79.76,73.08h-1.07v9.83h1.07v-3.24c0-.46.05-.86.16-1.19.1-.33.24-.61.42-.82.18-.21.39-.37.63-.47.24-.1.5-.16.78-.16.34,0,.61.06.81.19.2.13.36.3.47.52.11.22.19.48.22.79.03.3.05.64.05,1v3.38h1.07v-3.8c0-.43-.04-.83-.12-1.2-.08-.36-.21-.68-.39-.94-.18-.26-.43-.46-.73-.61-.31-.15-.69-.22-1.14-.22-.5,0-.94.12-1.33.36-.38.24-.69.55-.92.94h-.03c0-.09.01-.2.02-.34,0-.14,0-.29.01-.46,0-.16,0-.34,0-.51v-3.06h0ZM91.88,79.82c0-.07.02-.15.02-.23,0-.09,0-.16,0-.22,0-1.09-.24-1.9-.73-2.43-.49-.53-1.16-.79-2.02-.79-.46,0-.88.08-1.25.24-.38.16-.7.39-.97.69-.27.3-.48.66-.63,1.07-.15.42-.22.88-.22,1.4,0,1.09.29,1.95.88,2.57.58.62,1.42.93,2.52.93.72,0,1.37-.13,1.96-.39l-.04-.98c-.29.16-.59.28-.88.36-.29.08-.62.12-.99.12-.71,0-1.28-.21-1.7-.62-.42-.41-.65-.99-.66-1.72h4.73ZM87.18,79c.05-.66.26-1.16.62-1.51.36-.35.8-.53,1.33-.53s.95.17,1.27.5c.32.33.47.85.47,1.54h-3.69ZM94.71,77.43c0-.17,0-.37-.01-.58,0-.22-.02-.4-.04-.56h-1.03c.03.28.04.59.05.93,0,.34.01.69.01,1.05v4.64h1.07v-3.24c0-.46.05-.86.15-1.19.1-.33.24-.61.41-.82.17-.21.38-.37.62-.47.24-.1.51-.16.79-.16.33,0,.6.06.81.18.21.12.37.29.48.51.11.22.19.49.23.79.04.31.06.65.06,1.02v3.38h1.07v-3.8c0-.43-.04-.83-.12-1.2-.08-.36-.21-.68-.39-.94-.18-.26-.43-.46-.73-.61-.31-.15-.69-.22-1.15-.22-.5,0-.94.11-1.32.34-.38.23-.69.54-.93.94h-.03ZM105.63,77.43c0-.17,0-.37,0-.58,0-.22-.02-.4-.03-.56h-1.01c.03.28.04.59.05.93,0,.34.01.69.01,1.05v4.64h1.07v-3.19c0-.88.17-1.55.51-2.01.34-.46.78-.68,1.33-.68.46,0,.78.16.97.48.19.32.29.85.29,1.6v3.8h1.07v-3.13c0-.94.15-1.64.46-2.08s.74-.66,1.29-.66c.29,0,.52.05.69.16.18.11.31.27.41.47.1.21.16.46.19.75.03.29.05.63.05,1v3.48h1.07v-3.97c0-.88-.17-1.56-.51-2.05-.34-.49-.89-.74-1.65-.74-.51,0-.95.13-1.33.38-.37.25-.67.61-.9,1.07-.13-.44-.35-.79-.66-1.05-.31-.26-.71-.39-1.21-.39s-.91.12-1.27.35c-.36.23-.65.55-.85.94h-.03ZM117.36,73.71h-1.2v1.22h1.2v-1.22h0ZM117.3,76.29h-1.07v6.62h1.07v-6.62h0ZM121.08,74.44l-1.04.35v1.53h-1.47v.84h1.47v3.52c0,.34.03.65.08.93.06.28.16.52.31.73.15.2.35.36.6.47.25.11.57.16.96.16.17,0,.34-.02.5-.05.16-.03.31-.07.46-.11l-.04-.84c-.23.1-.47.16-.7.16s-.41-.04-.56-.12c-.15-.08-.27-.19-.35-.33-.09-.14-.15-.32-.18-.53-.03-.21-.05-.45-.05-.71v-3.28h1.77v-.84h-1.77v-1.89h0ZM127.63,82.9h2.28c.45,0,.88-.04,1.29-.13.41-.09.77-.23,1.09-.43.31-.2.56-.46.74-.77.18-.32.27-.71.27-1.18,0-.61-.2-1.1-.59-1.48-.4-.38-.91-.6-1.55-.68v-.03c.62-.12,1.09-.36,1.43-.72.34-.36.51-.81.51-1.35,0-.8-.29-1.38-.88-1.75-.59-.37-1.38-.56-2.37-.56h-2.21v9.07h0ZM128.71,74.74h1c.7,0,1.26.11,1.66.34.4.23.6.62.6,1.17,0,.31-.06.57-.19.77-.13.2-.3.36-.51.47-.22.11-.47.19-.76.23-.29.04-.6.07-.92.07h-.88v-3.04h0ZM128.71,78.67h.86c.89,0,1.55.13,1.98.4.42.27.64.69.64,1.27s-.21,1-.62,1.27c-.41.26-1.02.4-1.84.4h-1.01v-3.34h0ZM136.33,73.08h-1.07v8.06c0,.23.02.45.06.67.04.22.13.42.25.59.12.17.3.31.51.42.22.11.5.16.85.16.16,0,.32-.01.5-.04.18-.03.33-.06.46-.1l-.04-.83c-.1.04-.19.07-.3.09-.1.02-.23.03-.36.03-.18,0-.33-.03-.45-.09-.12-.06-.21-.14-.27-.25-.06-.1-.1-.23-.12-.37-.02-.14-.03-.3-.03-.47v-7.87h0ZM140.18,73.71h-1.2v1.22h1.2v-1.22h0ZM140.11,76.29h-1.07v6.62h1.07v-6.62h0ZM143.42,77.43c0-.17,0-.37-.01-.58,0-.22-.02-.4-.04-.56h-1.03c.03.28.04.59.05.93,0,.34.01.69.01,1.05v4.64h1.07v-3.24c0-.46.05-.86.15-1.19.1-.33.24-.61.41-.82.17-.21.38-.37.62-.47.24-.1.51-.16.79-.16.33,0,.6.06.81.18.21.12.37.29.48.51.11.22.19.49.23.79.04.31.06.65.06,1.02v3.38h1.07v-3.8c0-.43-.04-.83-.12-1.2-.08-.36-.21-.68-.39-.94-.18-.26-.43-.46-.73-.61-.31-.15-.69-.22-1.15-.22-.5,0-.94.11-1.32.34-.38.23-.69.54-.93.94h-.03ZM155.93,73.08h-1.07v2.64c0,.33,0,.64,0,.93,0,.29.02.53.03.72h-.03c-.2-.38-.49-.68-.88-.9-.39-.22-.82-.33-1.32-.33-.44,0-.84.09-1.2.26-.36.17-.67.42-.92.73-.25.31-.44.68-.58,1.11-.13.43-.2.9-.2,1.41s.07.95.19,1.36c.13.42.32.77.57,1.07.25.3.55.53.91.7.36.17.76.25,1.22.25.52,0,.97-.12,1.35-.36.38-.24.69-.57.93-.99h.03c0,.21,0,.42,0,.62,0,.21.01.4.03.58h.99c-.03-.28-.04-.59-.05-.94,0-.35-.01-.7-.01-1.06v-7.83h0ZM153.67,77.21c.25.13.47.31.64.55.18.23.32.51.42.83.1.32.15.67.15,1.04s-.05.7-.16,1.01c-.1.31-.25.58-.43.81-.18.23-.4.4-.64.53-.25.13-.51.2-.8.2-.3,0-.57-.07-.81-.2-.24-.13-.44-.31-.61-.54-.17-.23-.3-.5-.39-.81-.09-.31-.14-.65-.14-1,0-.38.05-.73.14-1.05.1-.32.23-.6.4-.83.17-.23.38-.41.62-.54.24-.13.51-.2.79-.2s.57.07.82.2h0ZM159.29,73.08h-1.07v9.83h1.07v-3.24c0-.46.05-.86.16-1.19.1-.33.24-.61.42-.82.18-.21.39-.37.63-.47.24-.1.5-.16.78-.16.34,0,.61.06.81.19.2.13.36.3.47.52.11.22.19.48.22.79.03.3.05.64.05,1v3.38h1.07v-3.8c0-.43-.04-.83-.12-1.2-.08-.36-.21-.68-.39-.94-.18-.26-.43-.46-.74-.61-.31-.15-.69-.22-1.14-.22-.5,0-.95.12-1.33.36-.38.24-.69.55-.92.94h-.03c0-.09.02-.2.02-.34,0-.14,0-.29.01-.46,0-.16,0-.34,0-.51v-3.06h0ZM171.42,79.82c0-.07.01-.15.02-.23,0-.09,0-.16,0-.22,0-1.09-.24-1.9-.73-2.43-.49-.53-1.16-.79-2.02-.79-.46,0-.88.08-1.25.24-.38.16-.7.39-.98.69-.27.3-.48.66-.63,1.07-.15.42-.22.88-.22,1.4,0,1.09.29,1.95.88,2.57.58.62,1.42.93,2.52.93.72,0,1.37-.13,1.96-.39l-.04-.98c-.29.16-.59.28-.88.36-.29.08-.62.12-.99.12-.71,0-1.28-.21-1.7-.62-.42-.41-.65-.99-.66-1.72h4.73ZM166.71,79c.05-.66.26-1.16.62-1.51.36-.35.8-.53,1.33-.53s.95.17,1.27.5c.32.33.48.85.48,1.54h-3.69ZM174.35,73.71h-1.2v1.22h1.2v-1.22h0ZM174.29,76.29h-1.07v6.62h1.07v-6.62h0ZM178.07,74.44l-1.04.35v1.53h-1.47v.84h1.47v3.52c0,.34.03.65.09.93.06.28.16.52.31.73.15.2.35.36.6.47.25.11.57.16.96.16.17,0,.34-.02.5-.05.16-.03.31-.07.46-.11l-.04-.84c-.23.1-.47.16-.7.16s-.41-.04-.56-.12c-.15-.08-.26-.19-.35-.33-.09-.14-.15-.32-.18-.53-.03-.21-.05-.45-.05-.71v-3.28h1.77v-.84h-1.77v-1.89h0ZM189.08,81.76c0,.17,0,.37.01.58,0,.22.02.4.04.56h1.03c-.03-.28-.04-.59-.05-.93,0-.34-.01-.69-.01-1.05v-4.64h-1.07v3.24c0,.46-.05.86-.15,1.19-.1.33-.24.61-.41.82-.17.21-.38.37-.62.47-.24.1-.51.16-.79.16-.33,0-.6-.06-.81-.18-.21-.12-.37-.29-.48-.51-.11-.22-.19-.48-.23-.79-.04-.3-.06-.65-.06-1.03v-3.38h-1.07v3.8c0,.43.04.83.12,1.2s.21.68.39.94c.18.26.43.46.73.61.31.15.69.22,1.15.22.5,0,.94-.11,1.32-.34.38-.23.69-.54.93-.94h.03ZM193.4,77.43c0-.17,0-.37-.01-.58,0-.22-.02-.4-.04-.56h-1.03c.03.28.04.59.05.93,0,.34.01.69.01,1.05v4.64h1.07v-3.24c0-.46.05-.86.15-1.19.1-.33.24-.61.41-.82.17-.21.38-.37.62-.47s.51-.16.79-.16c.33,0,.6.06.81.18.21.12.37.29.48.51.11.22.19.49.23.79.04.31.06.65.06,1.02v3.38h1.07v-3.8c0-.43-.04-.83-.12-1.2-.08-.36-.21-.68-.39-.94-.18-.26-.43-.46-.73-.61-.31-.15-.69-.22-1.15-.22-.5,0-.94.11-1.32.34-.38.23-.69.54-.93.94h-.03ZM205.92,73.08h-1.07v2.64c0,.33,0,.64,0,.93,0,.29.01.53.03.72h-.03c-.2-.38-.49-.68-.88-.9-.39-.22-.83-.33-1.32-.33-.44,0-.84.09-1.2.26-.36.17-.66.42-.92.73-.25.31-.44.68-.58,1.11-.13.43-.2.9-.2,1.41s.07.95.2,1.36c.13.42.32.77.57,1.07.25.3.55.53.91.7.36.17.76.25,1.22.25.52,0,.97-.12,1.34-.36.38-.24.69-.57.93-.99h.03c0,.21,0,.42,0,.62,0,.21.01.4.03.58h.99c-.03-.28-.04-.59-.05-.94,0-.35-.01-.7-.01-1.06v-7.83h0ZM203.66,77.21c.25.13.47.31.64.55.18.23.32.51.42.83.1.32.15.67.15,1.04s-.05.7-.16,1.01c-.1.31-.25.58-.43.81-.18.23-.4.4-.64.53-.25.13-.51.2-.8.2-.3,0-.57-.07-.81-.2-.24-.13-.44-.31-.61-.54-.17-.23-.3-.5-.39-.81-.09-.31-.14-.65-.14-1,0-.38.05-.73.14-1.05.1-.32.23-.6.4-.83.17-.23.38-.41.62-.54.24-.13.51-.2.79-.2s.57.07.82.2h0Z"/>
  <path class="cls-7" d="M19.94,65.9h2.28c.45,0,.88-.04,1.29-.13.41-.09.77-.23,1.09-.43.31-.2.56-.46.74-.77.18-.32.27-.71.27-1.18,0-.61-.2-1.1-.59-1.48-.39-.38-.91-.6-1.55-.68v-.03c.62-.12,1.09-.36,1.43-.72.34-.36.51-.81.51-1.35,0-.8-.29-1.38-.88-1.76-.58-.37-1.38-.56-2.37-.56h-2.21v9.07h0ZM21.02,57.74h1c.7,0,1.25.11,1.66.34.4.23.6.62.6,1.17,0,.31-.06.57-.19.77-.13.2-.3.36-.51.47-.22.11-.47.19-.76.23-.29.04-.6.07-.92.07h-.88v-3.04h0ZM21.02,61.67h.86c.89,0,1.55.13,1.98.4.42.27.64.69.64,1.27s-.21,1-.62,1.27c-.41.26-1.03.4-1.84.4h-1.01v-3.34h0ZM32.18,64.76c0,.17,0,.37.01.59,0,.22.02.4.04.56h1.03c-.03-.28-.04-.59-.05-.93,0-.34-.01-.69-.01-1.05v-4.64h-1.07v3.24c0,.46-.05.86-.15,1.19-.1.33-.24.61-.41.82-.17.21-.38.37-.62.47-.24.1-.51.16-.79.16-.33,0-.6-.06-.81-.18-.21-.12-.37-.29-.48-.51-.11-.22-.19-.48-.23-.79-.04-.3-.06-.65-.06-1.03v-3.38h-1.07v3.8c0,.43.04.83.12,1.2.08.36.21.68.39.94.18.26.43.46.73.61.31.15.69.22,1.15.22.5,0,.94-.11,1.32-.34.38-.23.69-.54.93-.94h.03ZM36.49,60.43c0-.17,0-.37-.01-.58,0-.22-.02-.4-.04-.56h-1.03c.03.28.04.59.05.93,0,.34.01.69.01,1.05v4.64h1.07v-3.24c0-.46.05-.86.15-1.19.1-.33.24-.61.41-.82.17-.21.38-.37.62-.47.24-.1.51-.16.79-.16.33,0,.6.06.81.18.21.12.37.29.48.51.11.22.19.49.23.79.04.31.06.65.06,1.02v3.38h1.07v-3.8c0-.43-.04-.83-.12-1.2-.08-.36-.21-.68-.39-.94-.18-.26-.43-.46-.73-.61-.31-.15-.69-.22-1.15-.22-.5,0-.94.11-1.32.34-.38.23-.69.54-.93.94h-.03ZM49.01,56.08h-1.07v2.64c0,.33,0,.64,0,.93,0,.29.01.53.03.72h-.03c-.2-.38-.49-.68-.88-.9-.39-.22-.83-.32-1.32-.32-.44,0-.84.09-1.2.26-.36.17-.67.42-.92.73-.25.31-.44.68-.58,1.11-.13.43-.2.9-.2,1.41s.06.95.19,1.36c.13.42.32.77.57,1.07s.55.53.91.7c.36.17.76.25,1.22.25.52,0,.97-.12,1.35-.36.38-.24.69-.57.93-.99h.03c0,.21,0,.42,0,.62,0,.21.01.4.03.59h.99c-.03-.28-.04-.59-.05-.94,0-.35-.01-.7-.01-1.06v-7.83h0ZM46.75,60.21c.25.13.47.31.64.55.18.23.32.51.42.83.1.32.15.67.15,1.04s-.05.7-.16,1.01c-.1.31-.25.58-.43.81-.18.23-.4.4-.64.53-.25.13-.51.19-.8.19-.3,0-.57-.07-.81-.19-.24-.13-.44-.31-.61-.54-.17-.23-.3-.5-.39-.81-.09-.31-.14-.65-.14-1,0-.38.05-.73.14-1.05.1-.32.23-.6.4-.83.17-.23.37-.41.62-.54.24-.13.51-.2.79-.2s.57.07.82.2h0ZM56.62,62.82c0-.07.01-.15.02-.23,0-.09,0-.16,0-.22,0-1.09-.24-1.9-.73-2.43-.49-.53-1.16-.79-2.02-.79-.46,0-.88.08-1.25.24-.38.16-.7.39-.97.69-.27.3-.48.66-.63,1.07-.15.42-.22.88-.22,1.4,0,1.09.29,1.95.88,2.57.58.62,1.42.93,2.52.93.72,0,1.37-.13,1.96-.39l-.04-.98c-.29.16-.59.28-.88.36-.29.08-.62.12-.99.12-.71,0-1.28-.21-1.7-.62-.42-.41-.65-.99-.66-1.72h4.73ZM51.91,62c.05-.66.26-1.16.62-1.51.36-.35.8-.53,1.33-.53s.95.17,1.27.5c.32.33.47.85.47,1.54h-3.69ZM57.83,65.72c.28.11.56.2.85.25.29.05.6.08.94.08.32,0,.62-.04.91-.12.29-.08.53-.21.75-.37.21-.16.38-.37.5-.62.12-.25.18-.54.18-.86,0-.44-.13-.81-.4-1.12-.26-.3-.7-.58-1.31-.82-.45-.18-.78-.36-.99-.52-.21-.16-.32-.39-.32-.68,0-.31.12-.55.36-.71.24-.16.52-.24.85-.24.24,0,.48.02.71.07.23.05.47.13.71.25l.09-.9c-.21-.09-.44-.15-.71-.2-.26-.05-.54-.07-.81-.07-.32,0-.62.04-.89.12-.27.08-.51.2-.71.36-.2.16-.36.36-.47.59-.11.23-.17.5-.17.79,0,.23.03.42.1.6.06.17.16.33.29.47.13.14.29.28.49.4.19.12.42.24.68.35.27.12.49.23.68.33.18.1.33.2.44.29.11.1.19.2.24.31.05.11.07.24.07.39,0,.34-.13.59-.4.77-.26.17-.58.26-.94.26-.57,0-1.12-.14-1.64-.43l-.09.96h0ZM66.09,65.9l1.42-4.5c.03-.08.05-.17.08-.29.03-.11.06-.23.1-.36.03-.13.07-.25.1-.37.03-.12.06-.23.08-.32h.03c.02.1.04.2.07.32.03.12.06.25.1.37.03.13.07.24.1.36.03.11.06.21.08.29l1.42,4.5h1.23l2.17-6.62h-1.05l-1.26,4.22c-.03.1-.06.21-.1.34-.04.13-.08.27-.12.42-.04.14-.08.28-.11.42-.03.14-.07.26-.09.38h-.03c-.03-.11-.06-.24-.09-.38-.03-.14-.07-.28-.11-.42-.04-.14-.08-.28-.12-.42-.04-.13-.08-.25-.11-.36l-1.34-4.21h-1.29l-1.34,4.21c-.03.1-.07.22-.11.36-.04.13-.08.27-.12.42-.04.14-.08.28-.12.42-.04.14-.07.26-.1.38h-.03c-.03-.11-.06-.24-.09-.38-.03-.14-.07-.28-.1-.42-.03-.14-.07-.28-.1-.42-.03-.14-.07-.26-.1-.36l-1.22-4.2h-1.14l2.13,6.62h1.27ZM79.7,62.82c0-.07.01-.15.02-.23,0-.09,0-.16,0-.22,0-1.09-.25-1.9-.73-2.43-.49-.53-1.16-.79-2.02-.79-.46,0-.88.08-1.25.24-.38.16-.7.39-.97.69s-.48.66-.63,1.07c-.15.42-.22.88-.22,1.4,0,1.09.29,1.95.88,2.57.59.62,1.42.93,2.52.93.72,0,1.37-.13,1.96-.39l-.04-.98c-.29.16-.59.28-.88.36-.29.08-.62.12-.99.12-.71,0-1.28-.21-1.7-.62-.42-.41-.65-.99-.66-1.72h4.73ZM75,62c.05-.66.26-1.16.62-1.51.36-.35.8-.53,1.33-.53s.95.17,1.27.5c.32.33.47.85.47,1.54h-3.69ZM82.64,56.71h-1.2v1.22h1.2v-1.22h0ZM82.58,59.29h-1.07v6.62h1.07v-6.62h0ZM86.36,57.44l-1.04.35v1.53h-1.47v.85h1.47v3.52c0,.34.03.65.08.93.06.28.16.52.31.73.15.2.35.36.6.47.25.11.57.16.96.16.17,0,.34-.02.5-.05.16-.03.31-.07.46-.11l-.04-.85c-.23.1-.47.16-.7.16s-.41-.04-.56-.12c-.15-.08-.26-.19-.35-.33-.09-.14-.15-.32-.18-.53-.03-.21-.05-.45-.05-.71v-3.28h1.77v-.85h-1.77v-1.89h0ZM95.04,62.82c0-.07.01-.15.02-.23,0-.09,0-.16,0-.22,0-1.09-.24-1.9-.73-2.43-.49-.53-1.16-.79-2.02-.79-.46,0-.88.08-1.25.24-.38.16-.7.39-.98.69-.27.3-.48.66-.63,1.07-.15.42-.22.88-.22,1.4,0,1.09.29,1.95.88,2.57.59.62,1.42.93,2.52.93.72,0,1.37-.13,1.96-.39l-.04-.98c-.29.16-.59.28-.88.36-.29.08-.62.12-.99.12-.71,0-1.28-.21-1.7-.62-.42-.41-.65-.99-.66-1.72h4.73ZM90.34,62c.05-.66.26-1.16.62-1.51.36-.35.8-.53,1.33-.53s.95.17,1.27.5c.32.33.47.85.47,1.54h-3.69ZM96.25,65.72c.28.11.56.2.85.25.29.05.6.08.94.08.32,0,.62-.04.91-.12.29-.08.54-.21.75-.37.21-.16.38-.37.5-.62.12-.25.18-.54.18-.86,0-.44-.13-.81-.4-1.12-.26-.3-.7-.58-1.31-.82-.45-.18-.78-.36-.99-.52-.21-.16-.32-.39-.32-.68,0-.31.12-.55.36-.71.24-.16.52-.24.85-.24.24,0,.48.02.71.07.23.05.46.13.71.25l.09-.9c-.21-.09-.44-.15-.71-.2-.26-.05-.54-.07-.81-.07-.32,0-.62.04-.89.12-.27.08-.51.2-.71.36-.2.16-.36.36-.47.59-.11.23-.17.5-.17.79,0,.23.03.42.1.6.07.17.16.33.29.47.13.14.29.28.49.4.2.12.42.24.68.35.27.12.49.23.68.33.18.1.33.2.44.29.11.1.19.2.24.31.05.11.07.24.07.39,0,.34-.13.59-.4.77-.26.17-.58.26-.94.26-.57,0-1.12-.14-1.64-.43l-.09.96h0ZM106.37,61.31h.03c.29.35.57.66.83.95.26.29.46.51.6.68l2.78,2.96h1.61l-4.72-4.81,4.34-4.26h-1.49l-2.18,2.24c-.08.08-.19.19-.33.33-.14.14-.29.3-.45.48-.16.18-.33.36-.51.55-.17.19-.33.36-.48.53h-.03v-4.12h-1.09v9.07h1.09v-4.59h0ZM114.76,59.4c-.41.17-.76.41-1.05.71-.29.31-.52.67-.68,1.1-.16.42-.25.9-.25,1.42s.08.96.25,1.38c.17.42.39.78.68,1.08.29.3.64.53,1.04.7.4.17.84.25,1.32.25s.93-.08,1.33-.25c.4-.16.75-.4,1.04-.7.29-.3.51-.66.68-1.08.16-.42.24-.88.24-1.39s-.08-.98-.24-1.41c-.16-.43-.38-.8-.67-1.1-.29-.31-.63-.55-1.03-.71-.4-.17-.83-.25-1.3-.25-.49,0-.95.08-1.36.25h0ZM116.94,60.2c.27.13.5.3.7.53.2.23.34.5.45.82.1.32.16.68.16,1.07s-.05.74-.16,1.05-.25.58-.44.81c-.19.23-.42.4-.69.52-.27.12-.56.18-.88.18s-.63-.06-.89-.18c-.27-.12-.49-.29-.68-.51-.19-.22-.34-.49-.44-.8-.1-.31-.16-.66-.16-1.05s.05-.75.16-1.07c.1-.32.25-.6.44-.83.19-.23.41-.41.68-.53.26-.13.56-.19.88-.19s.63.06.9.19h0ZM122.14,60.43c0-.17,0-.37,0-.58,0-.22-.01-.4-.03-.56h-1.01c.03.28.04.59.05.93,0,.34.01.69.01,1.05v4.64h1.07v-3.18c0-.88.17-1.55.51-2.01s.78-.68,1.33-.68c.46,0,.78.16.98.48.19.32.29.85.29,1.6v3.8h1.07v-3.13c0-.94.15-1.64.46-2.08.31-.44.74-.66,1.29-.66.29,0,.52.05.69.16.18.11.31.27.41.47.1.21.16.46.19.75.03.29.05.63.05,1v3.48h1.07v-3.96c0-.88-.17-1.56-.51-2.05-.34-.49-.89-.74-1.65-.74-.51,0-.95.13-1.33.38-.37.25-.67.61-.9,1.07-.13-.44-.35-.79-.66-1.05-.31-.26-.71-.39-1.21-.39s-.91.12-1.27.35c-.36.23-.65.55-.84.94h-.03ZM132.74,68.63h1.07v-2.7c0-.16,0-.32,0-.48,0-.16,0-.31-.01-.44,0-.13-.01-.24-.02-.31h.03c.2.4.49.72.88.97.39.25.84.37,1.36.37.42,0,.81-.08,1.16-.25.35-.17.65-.41.9-.71.25-.31.44-.68.57-1.11.13-.43.2-.91.2-1.44s-.07-.96-.2-1.38c-.13-.42-.32-.77-.57-1.07-.24-.3-.54-.53-.88-.69-.35-.16-.73-.24-1.14-.24-.5,0-.95.11-1.34.32-.39.21-.71.54-.96.98h-.03c0-.16,0-.36-.01-.59,0-.23-.02-.42-.04-.57h-1.01c.03.28.04.59.05.93,0,.34.01.69.01,1.05v7.37h0ZM137.23,60.73c.35.48.52,1.11.52,1.9,0,.36-.05.7-.14,1.01-.09.31-.22.58-.39.81-.17.23-.37.41-.61.54-.24.13-.51.19-.8.19s-.55-.07-.81-.2c-.25-.13-.47-.32-.66-.55-.19-.23-.33-.5-.44-.81-.1-.31-.16-.64-.16-.99s.05-.72.16-1.04c.1-.32.25-.6.43-.83.18-.23.4-.42.64-.55.25-.13.52-.2.81-.2.61,0,1.08.24,1.43.71h0ZM145.98,62.82c0-.07.01-.15.02-.23,0-.09,0-.16,0-.22,0-1.09-.25-1.9-.74-2.43-.49-.53-1.16-.79-2.02-.79-.46,0-.88.08-1.25.24-.38.16-.7.39-.98.69-.27.3-.48.66-.63,1.07-.15.42-.22.88-.22,1.4,0,1.09.29,1.95.88,2.57.59.62,1.42.93,2.52.93.72,0,1.37-.13,1.96-.39l-.04-.98c-.29.16-.59.28-.88.36-.29.08-.62.12-.99.12-.71,0-1.28-.21-1.7-.62-.43-.41-.65-.99-.66-1.72h4.73ZM141.27,62c.05-.66.26-1.16.62-1.51.36-.35.8-.53,1.33-.53s.95.17,1.27.5c.32.33.47.85.47,1.54h-3.69ZM149.28,57.44l-1.04.35v1.53h-1.47v.85h1.47v3.52c0,.34.03.65.08.93.06.28.16.52.31.73.15.2.35.36.61.47.25.11.57.16.96.16.17,0,.34-.02.5-.05.16-.03.31-.07.46-.11l-.04-.85c-.23.1-.47.16-.7.16s-.41-.04-.56-.12c-.15-.08-.26-.19-.35-.33-.09-.14-.15-.32-.18-.53-.04-.21-.05-.45-.05-.71v-3.28h1.77v-.85h-1.77v-1.89h0ZM157.96,62.82c0-.07.01-.15.02-.23,0-.09,0-.16,0-.22,0-1.09-.24-1.9-.74-2.43-.49-.53-1.16-.79-2.02-.79-.46,0-.88.08-1.26.24-.38.16-.7.39-.97.69-.27.3-.48.66-.63,1.07-.15.42-.22.88-.22,1.4,0,1.09.29,1.95.88,2.57.58.62,1.42.93,2.52.93.72,0,1.37-.13,1.96-.39l-.04-.98c-.29.16-.59.28-.88.36-.3.08-.62.12-.99.12-.71,0-1.28-.21-1.7-.62-.43-.41-.65-.99-.66-1.72h4.73ZM153.26,62c.05-.66.26-1.16.62-1.51.36-.35.8-.53,1.33-.53s.95.17,1.27.5c.32.33.48.85.48,1.54h-3.69ZM160.78,60.43c0-.17,0-.37-.01-.58,0-.22-.02-.4-.04-.56h-1.03c.03.28.04.59.05.93,0,.34.01.69.01,1.05v4.64h1.07v-3.24c0-.46.05-.86.15-1.19.1-.33.24-.61.41-.82.17-.21.38-.37.62-.47.24-.1.51-.16.79-.16.33,0,.6.06.81.18.21.12.37.29.48.51.11.22.19.49.23.79.04.31.06.65.06,1.02v3.38h1.07v-3.8c0-.43-.04-.83-.12-1.2-.08-.36-.21-.68-.39-.94-.18-.26-.43-.46-.73-.61-.31-.15-.69-.22-1.15-.22-.5,0-.94.11-1.32.34-.38.23-.69.54-.93.94h-.03ZM172.15,60.21v-.92h-4.97v.83h3.83c-.07.08-.18.2-.33.38-.15.17-.38.44-.68.8-.3.36-.69.84-1.18,1.43-.48.59-1.1,1.35-1.83,2.27v.91h5.25v-.86h-4.08c.09-.1.22-.25.4-.46.18-.21.43-.51.74-.88.31-.38.7-.85,1.16-1.42.46-.57,1.02-1.26,1.67-2.07h0ZM178.48,60.21v-.92h-4.97v.83h3.84c-.07.08-.18.2-.33.38-.15.17-.38.44-.68.8-.3.36-.69.84-1.18,1.43-.49.59-1.1,1.35-1.83,2.27v.91h5.25v-.86h-4.08c.09-.1.22-.25.4-.46.18-.21.43-.51.74-.88.31-.38.7-.85,1.16-1.42.46-.57,1.02-1.26,1.67-2.07h0ZM185.5,62.82c0-.07.01-.15.02-.23,0-.09,0-.16,0-.22,0-1.09-.25-1.9-.73-2.43-.49-.53-1.16-.79-2.02-.79-.46,0-.88.08-1.25.24-.38.16-.7.39-.97.69s-.48.66-.63,1.07c-.15.42-.22.88-.22,1.4,0,1.09.29,1.95.88,2.57.58.62,1.42.93,2.51.93.72,0,1.37-.13,1.96-.39l-.04-.98c-.29.16-.59.28-.88.36-.29.08-.62.12-.99.12-.71,0-1.28-.21-1.7-.62-.42-.41-.65-.99-.66-1.72h4.73ZM180.79,62c.05-.66.26-1.16.62-1.51.36-.35.8-.53,1.33-.53s.95.17,1.27.5c.32.33.47.85.47,1.54h-3.69ZM188.32,60.43c0-.17,0-.37-.01-.58,0-.22-.02-.4-.04-.56h-1.03c.03.28.04.59.05.93,0,.34.01.69.01,1.05v4.64h1.07v-3.24c0-.46.05-.86.15-1.19.1-.33.24-.61.41-.82.17-.21.38-.37.62-.47.24-.1.51-.16.79-.16.33,0,.6.06.81.18.21.12.37.29.48.51.11.22.19.49.23.79.04.31.06.65.06,1.02v3.38h1.07v-3.8c0-.43-.04-.83-.12-1.2-.08-.36-.21-.68-.39-.94-.18-.26-.43-.46-.73-.61-.31-.15-.69-.22-1.15-.22-.5,0-.94.11-1.32.34-.38.23-.69.54-.93.94h-.03ZM196.68,57.44l-1.04.35v1.53h-1.47v.85h1.47v3.52c0,.34.03.65.08.93.06.28.16.52.31.73.15.2.35.36.6.47.25.11.57.16.96.16.17,0,.34-.02.5-.05.16-.03.32-.07.46-.11l-.04-.85c-.23.1-.47.16-.7.16s-.41-.04-.56-.12c-.15-.08-.26-.19-.35-.33-.09-.14-.15-.32-.18-.53-.04-.21-.05-.45-.05-.71v-3.28h1.77v-.85h-1.77v-1.89h0ZM201.07,60.48c0-.17,0-.37-.01-.6,0-.23-.02-.42-.04-.6h-1.04c.03.28.04.59.05.93,0,.34.01.69.01,1.05v4.64h1.07v-3.2c0-.8.16-1.43.48-1.89.32-.46.77-.7,1.34-.7.23,0,.44.03.61.08v-.97c-.17-.05-.37-.08-.6-.08-.42,0-.8.13-1.12.38-.32.25-.56.57-.73.96h-.03ZM209.47,64.76c0,.17,0,.37.01.59,0,.22.02.4.04.56h1.03c-.03-.28-.04-.59-.05-.93,0-.34-.01-.69-.01-1.05v-4.64h-1.07v3.24c0,.46-.05.86-.15,1.19-.1.33-.24.61-.41.82-.17.21-.38.37-.62.47-.24.1-.51.16-.79.16-.33,0-.6-.06-.81-.18-.21-.12-.37-.29-.48-.51-.11-.22-.19-.48-.23-.79-.04-.3-.06-.65-.06-1.03v-3.38h-1.07v3.8c0,.43.04.83.12,1.2.08.36.21.68.39.94.18.26.43.46.73.61.31.15.69.22,1.15.22.5,0,.94-.11,1.32-.34.38-.23.69-.54.93-.94h.03ZM213.76,60.43c0-.17,0-.37,0-.58,0-.22-.01-.4-.03-.56h-1.01c.03.28.04.59.05.93,0,.34.01.69.01,1.05v4.64h1.07v-3.18c0-.88.17-1.55.51-2.01.34-.45.78-.68,1.33-.68.46,0,.78.16.97.48.19.32.29.85.29,1.6v3.8h1.07v-3.13c0-.94.15-1.64.46-2.08.31-.44.74-.66,1.29-.66.29,0,.52.05.69.16.18.11.31.27.41.47.1.21.16.46.19.75.03.29.05.63.05,1v3.48h1.07v-3.96c0-.88-.17-1.56-.51-2.05-.34-.49-.89-.74-1.65-.74-.51,0-.95.13-1.33.38-.37.25-.67.61-.9,1.07-.13-.44-.35-.79-.66-1.05-.31-.26-.72-.39-1.21-.39s-.91.12-1.27.35c-.36.23-.65.55-.85.94h-.03Z"/>
  <path class="cls-5" d="M56.86,32.96c-1.38-1.82-4.08-2.26-6.14-.74-2.06,1.53-2.37,4.24-1.01,6.04,1.36,1.79,4.11,2.24,6.14.74,2.03-1.51,2.4-4.21,1.01-6.04h0Z"/>
  <path class="cls-2" d="M47.12,36.87c-2.02-1.59-5.07-1.34-6.87.83-1.8,2.18-1.36,5.16.62,6.73,1.98,1.56,5.09,1.31,6.87-.83s1.39-5.14-.62-6.73h0Z"/>
  <path class="cls-4" d="M31.14,36.22c-2.74.61-4.55,3.37-3.8,6.39.74,3.02,3.69,4.72,6.39,4.12,2.7-.6,4.54-3.4,3.8-6.39-.74-2.99-3.65-4.73-6.39-4.12h0Z"/>
  <path class="cls-1" d="M16.19,33.57c-1.99,2.34-1.83,6.01.7,8.27,2.53,2.26,6.14,1.88,8.1-.43,1.96-2.3,1.8-6.04-.7-8.27s-6.11-1.92-8.1.43h0Z"/>
  <path class="cls-6" d="M4.29,26.43c-1.5,3.02-.41,6.84,2.82,8.52,3.22,1.68,6.91.28,8.39-2.69,1.48-2.97.37-6.86-2.82-8.52-3.18-1.66-6.89-.33-8.39,2.69h0Z"/>
  <path class="cls-3" d="M.25,13.63c-.98,3.51.96,7.3,4.71,8.34,3.75,1.05,7.38-1.25,8.34-4.7s-1-7.31-4.71-8.34c-3.71-1.03-7.36,1.19-8.34,4.7H.25Z"/>
  <path class="cls-3" d="M105.04,5.02c-2.36-1.13-4.66-1.7-6.82-1.7-5.31,0-10.17,4.23-10.17,10.47s4.4,10.41,10.31,10.41c2.24,0,4.63-.66,6.88-1.91v-1.64c-2.64,1.46-4.72,2.09-6.9,2.09-5.06,0-8.67-3.7-8.67-8.94s3.64-9,8.47-9c2.3,0,4.49.63,6.9,1.97v-1.73h0ZM120.95,21.19c-.84.67-1.86,1.4-2.24,1.4-.28,0-.39-.18-.39-.81v-9.82c0-3.3-2.95-4.1-4.91-4.1-1.72,0-3.16.49-5.09,1.68v1.72c1.86-1.4,3.12-2,4.81-2,2.35,0,3.51,1.12,3.51,3.23v2c-4.6.21-9.19,1.65-9.19,5.75,0,2.21,1.86,4,4.24,4,1.68,0,3.19-.6,4.95-1.96.14,1.58.35,1.96,1.12,1.96.67,0,1.33-.25,2.91-1.44l.28-.21v-1.4h0ZM116.63,20.8c-1.65,1.47-2.88,2.03-4.38,2.03-1.79,0-3.12-1.12-3.12-2.6,0-2.74,3.4-4.53,7.51-4.35v4.91h0ZM124.95,8.17h-1.68v15.75h1.68v-11.05c1.47-2.42,2.81-3.37,4.74-3.37,2.21,0,4.14,1.54,4.14,5.44v8.98h1.68v-10.73c1.58-2.63,2.84-3.68,4.77-3.68,2.77,0,4.1,2.32,4.1,5.47v8.94h1.68v-9.68c0-3.86-2.17-6.38-5.47-6.38-2.28,0-3.89,1.16-5.47,3.79-1.02-2.56-2.63-3.79-5.09-3.79-2.14,0-3.61.88-5.02,3.09h-.07v-2.77h0ZM152.1,8.17h-1.68v23.82h1.68v-8.94c1.79.88,3.09,1.19,4.67,1.19,4.42,0,7.86-3.61,7.86-8.24s-3.3-8.14-7.79-8.14c-1.65,0-2.95.32-4.74,1.19v-.88h0ZM152.1,10.66c1.65-.88,2.74-1.16,4.14-1.16,3.79,0,6.52,2.77,6.52,6.63s-2.53,6.45-6.31,6.45c-1.58,0-2.74-.32-4.35-1.19v-10.73h0ZM179.21,23.92h1.68v-15.75h-1.68v11.05c-1.37,2.14-2.63,3.37-5.12,3.37-2.32,0-4.31-1.51-4.31-4.7v-9.72h-1.68v9.75c0,4.7,3.16,6.31,5.86,6.31,2.46,0,3.75-.88,5.19-2.91h.07v2.6h0ZM193.94,9.19c-1.58-.91-2.84-1.33-4.21-1.33-2.84,0-5.09,1.89-5.09,4.31,0,5.05,8.17,3.93,8.17,7.68,0,1.61-1.4,2.74-3.33,2.74-1.51,0-2.88-.39-4.95-1.44v1.65c1.61.98,3.12,1.44,4.74,1.44,2.91,0,5.16-1.89,5.16-4.35,0-5.47-8.17-4.03-8.17-7.82,0-1.51,1.47-2.67,3.37-2.67,1.4,0,2.56.46,4.31,1.61v-1.82h0Z"/>
  <path class="cls-7" d="M20.3,23.05c2.14.84,3.68,1.19,5.58,1.19,5.33,0,8.8-3.4,8.8-8.7,0-4.53-2.88-7.68-7.02-7.68-2.53,0-4.03.95-5.68,2.56V0h-1.68v23.05h0ZM21.98,12.31c1.89-2.14,3.51-3.05,5.47-3.05,3.16,0,5.44,2.67,5.44,6.38,0,4.03-2.95,6.95-7.05,6.95-1.23,0-2.46-.21-3.86-.74v-9.54h0ZM39.62,0h-1.68v23.92h1.68V0h0ZM46.22,8.17h-1.68v15.75h1.68v-15.75h0ZM46.22.91h-1.68v2.88h1.68V.91h0ZM59.51,9.19c-1.58-.91-2.84-1.33-4.21-1.33-2.84,0-5.09,1.89-5.09,4.31,0,5.05,8.17,3.93,8.17,7.68,0,1.61-1.4,2.74-3.33,2.74-1.51,0-2.88-.39-4.95-1.44v1.65c1.61.98,3.12,1.44,4.74,1.44,2.91,0,5.16-1.89,5.16-4.35,0-5.47-8.17-4.03-8.17-7.82,0-1.51,1.47-2.67,3.37-2.67,1.4,0,2.56.46,4.31,1.61v-1.82h0ZM66.35,2.95h-.53l-1.16,1.47v3.75h-4.24v1.37h4.24v11.33c0,2.39,1.89,3.37,3.65,3.37.56,0,1.23-.14,1.82-.28.6-.18,1.12-.35,1.44-.53v-1.61c-1.4.63-1.93.77-2.88.77-2.32,0-2.35-.98-2.35-3.68v-9.37h4.42v-1.37h-4.42V2.95h0ZM86.45,21.19c-.84.67-1.86,1.4-2.25,1.4-.28,0-.39-.18-.39-.81v-9.82c0-3.3-2.95-4.1-4.91-4.1-1.72,0-3.16.49-5.09,1.68v1.72c1.86-1.4,3.12-2,4.81-2,2.35,0,3.51,1.12,3.51,3.23v2c-4.6.21-9.19,1.65-9.19,5.75,0,2.21,1.86,4,4.24,4,1.68,0,3.19-.6,4.95-1.96.14,1.58.35,1.96,1.12,1.96.67,0,1.33-.25,2.91-1.44l.28-.21v-1.4h0ZM82.14,20.8c-1.65,1.47-2.88,2.03-4.38,2.03-1.79,0-3.12-1.12-3.12-2.6,0-2.74,3.4-4.53,7.51-4.35v4.91h0Z"/>
</svg>